GIL01_fast5_RRA_states
nRows=7
nColumns=47

# SIMM Motion File Header:
name GIL01_fast5_RRA_states
datacolumns 47
datarows 7
otherdata 1
range 0.71733000000000047000 0.72033000000000047000
endheader
time	pelvis_tx	pelvis_ty	pelvis_tz	pelvis_tilt	pelvis_list	pelvis_rotation	hip_flexion_r	hip_adduction_r	hip_rotation_r	knee_angle_r	ankle_angle_r	subtalar_angle_r	mtp_angle_r	hip_flexion_l	hip_adduction_l	hip_rotation_l	knee_angle_l	ankle_angle_l	subtalar_angle_l	mtp_angle_l	lumbar_extension	lumbar_bending	lumbar_rotation	pelvis_tx_u	pelvis_ty_u	pelvis_tz_u	pelvis_tilt_u	pelvis_list_u	pelvis_rotation_u	hip_flexion_r_u	hip_adduction_r_u	hip_rotation_r_u	knee_angle_r_u	ankle_angle_r_u	subtalar_angle_r_u	mtp_angle_r_u	hip_flexion_l_u	hip_adduction_l_u	hip_rotation_l_u	knee_angle_l_u	ankle_angle_l_u	subtalar_angle_l_u	mtp_angle_l_u	lumbar_extension_u	lumbar_bending_u	lumbar_rotation_u
      0.71733000000000047000	      1.37457672787740460000	      0.79498015334825911000	     -0.23451528662685853000	     -5.81797083693229040000	      4.56274959675454820000	      0.24854625224458829000	     19.70960054923168100000	     -5.24013965781872580000	      2.00568576442511400000	    -60.10063966041679600000	    -12.70246458797121600000	      0.00000000000001927253	     -0.00000000000076993159	     14.91306473354876300000	      8.51455802202860570000	     -1.02678236199121440000	    -17.68916950908344200000	      7.83394978514854850000	     -0.00000000000002833273	      0.00000000000007672666	      3.36147006178397900000	     -5.80185111402340950000	      1.68598166887912490000	      1.24641509030774000000	      0.12745924057420360000	     -0.05984198881081246500	     -7.06384571374039890000	    -43.42963596757561400000	     19.75165956044151700000	    205.98991228029874000000	     45.80752527777539000000	     51.99929794129678100000	     34.45382331169243200000	    142.12854464529403000000	     -0.00000000000031869633	     -0.00000000000124643403	   -140.43125184006033000000	    -24.83103393954910100000	      9.12103204567892870000	     85.74755225487105300000	     48.99501331444231800000	     -0.00000000000004218710	      0.00000000000050076091	    -12.86237118463854600000	     77.10715304248222400000	    -63.79770608871591300000
      0.71783000000000041000	      1.37519992399771350000	      0.79504362330529854000	     -0.23454495106892742000	     -5.82149070908848640000	      4.54106044047780080000	      0.25837501198282981000	     19.81246300028805500000	     -5.21725095209835570000	      2.03149591938832910000	    -60.08292096237448700000	    -12.63135467473771600000	      0.00000000000001911373	     -0.00000000000077055459	     14.84278476006913300000	      8.50215069934024110000	     -1.02211364090685320000	    -17.64617607437102700000	      7.85834361505643210000	     -0.00000000000002835651	      0.00000000000007698559	      3.35502640640394830000	     -5.76337864909392740000	      1.65422087974447570000	      1.24637011801612370000	      0.12642011663304381000	     -0.05881642339603033300	     -7.01539569829969610000	    -43.32659711105461800000	     19.56394396464399300000	    205.45881687953170000000	     45.74670272795415100000	     51.24189663947233700000	     36.42088126717856500000	    142.31370932483566000000	     -0.00000000000031648611	     -0.00000000000124630499	   -140.68824546731710000000	    -24.79812875202435400000	      9.55484907625062800000	     86.22452011092150300000	     48.58155018136545800000	     -0.00000000000005209507	      0.00000000000053073004	    -12.91251319467220200000	     76.78219040699700300000	    -63.24574611768370900000
      0.71833000000000047000	      1.37582309872071740000	      0.79510657300205279000	     -0.23457410371315496000	     -5.82498598397454530000	      4.51942339199834460000	      0.26811078011219297000	     19.91505828300552500000	     -5.19439355807734680000	      2.05692821660120200000	    -60.06421886035413800000	    -12.56014828420405700000	      0.00000000000001895545	     -0.00000000000077117737	     14.77237688482102800000	      8.48976002364232050000	     -1.01722650718970600000	    -17.60294666162515800000	      7.88253264306692620000	     -0.00000000000002838041	      0.00000000000007724408	      3.34855728268708310000	     -5.72506944281524000000	      1.62273560750715750000	      1.24632949754739930000	      0.12537821691543061000	     -0.05779483662013482100	     -6.96545381236564950000	    -43.22120424594173500000	     19.37973198484806400000	    204.92122354983456000000	     45.68226228302289400000	     50.48782957918460600000	     38.38744954284488400000	    142.51444045699282000000	     -0.00000000000031637887	     -0.00000000000124547864	   -140.94285833032149000000	    -24.76444144010133600000	      9.99469990156779710000	     86.69145158503187100000	     48.17593200758019400000	     -0.00000000000004862064	      0.00000000000052115076	    -12.96425052227764300000	     76.45411298130406400000	    -62.69567831546484600000
      0.71883000000000041000	      1.37644625422149500000	      0.79516900108674771000	     -0.23460274662757191000	     -5.82845591027221310000	      4.49783960170480060000	      0.27775535756679787000	     20.01738311349387100000	     -5.17156926793934260000	      2.08198436281017770000	    -60.04453354728799800000	    -12.48883779864712400000	      0.00000000000001879736	     -0.00000000000077180021	     14.70184229792068500000	      8.47738636176948650000	     -1.01211793435890060000	    -17.55948630279079100000	      7.90652087084193860000	     -0.00000000000002840686	      0.00000000000007751116	      3.34206188378481480000	     -5.68692501870314790000	      1.59152484273954300000	      1.24629323457524780000	      0.12433370576914522000	     -0.05677758385289041800	     -6.91399621742047450000	    -43.11361873907938500000	     19.19920235574105800000	    204.37696860060012000000	     45.61435301137169800000	     49.73744606731599300000	     40.35380876777951900000	    142.72978533258018000000	     -0.00000000000031598113	     -0.00000000000124550312	   -141.19509373047492000000	    -24.73013090565441300000	     10.44059051411439400000	     87.14830244650708800000	     47.77825496811355800000	     -0.00000000000005871774	      0.00000000000055560964	    -13.01762038171311500000	     76.12314044409430400000	    -62.14776385308403700000
      0.71933000000000047000	      1.37706939268248440000	      0.79523090629985282000	     -0.23463088207993399000	     -5.83189972367105460000	      4.47631011165305010000	      0.28731062732104468000	     20.11943411356556800000	     -5.14877975891076200000	      2.10666633367795080000	    -60.02386503906502900000	    -12.41741622138755500000	      0.00000000000001863951	     -0.00000000000077242316	     14.63118218706666500000	      8.46502997016654570000	     -1.00678490782740180000	    -17.51580004649516600000	      7.93031222781858780000	     -0.00000000000002843444	      0.00000000000007778378	      3.33553938410336310000	     -5.64894674825836680000	      1.56058743999433670000	      1.24626133478401280000	      0.12328674807418144000	     -0.05576502986709431400	     -6.86099956695275990000	    -43.00400299496265400000	     19.02254203316228500000	    203.82588613180656000000	     45.54312070201726900000	     48.99108963390613500000	     42.32024066763147400000	    142.95879487335924000000	     -0.00000000000031524646	     -0.00000000000124701545	   -141.44495295171330000000	    -24.69535586510559700000	     10.89253364730179300000	     87.59502896732593100000	     47.38855512091925000000	     -0.00000000000005186245	      0.00000000000052135297	    -13.07265935261502500000	     75.78949299342294000000	    -61.60227198574538900000
      0.71983000000000041000	      1.37769251627975950000	      0.79529228745253766000	     -0.23465851249582587000	     -5.83531664991293920000	      4.45483591044571180000	      0.29677857287902765000	     20.22120783608836100000	     -5.12602667652698770000	      2.13097618117029960000	    -60.00221324894895500000	    -12.34587688477974500000	      0.00000000000001848197	     -0.00000000000077304689	     14.56039774039636800000	      8.45269105652877960000	     -1.00122439518230700000	    -17.47189296592688400000	      7.95391076903610550000	     -0.00000000000002846005	      0.00000000000007804545	      3.32898893902168380000	     -5.61113593587700700000	      1.52992212435802480000	      1.24623377595569630000	      0.12223749803195430000	     -0.05475750800777199500	     -6.80644343551660750000	    -42.89251702521048100000	     18.84992209080841300000	    203.26782292597022000000	     45.46871259082998100000	     48.24910609252688700000	     44.28701627401728300000	    143.20051827171429000000	     -0.00000000000031535098	     -0.00000000000124726360	   -141.69243923625157000000	    -24.66027706518142200000	     11.35050980683470500000	     88.03160232166696600000	     47.00691212242892200000	     -0.00000000000005004665	      0.00000000000052274911	    -13.12941072121590800000	     75.45338496836137700000	    -61.05945964605800900000
      0.72033000000000047000	      1.37831562717823260000	      0.79535314344136732000	     -0.23468564048343785000	     -5.83870590387722910000	      4.43341787954355390000	      0.30616125255868493000	     20.32270074703681200000	     -5.10331155161504050000	      2.15491622523470960000	    -59.97957791974706500000	    -12.27421374201928500000	      0.00000000000001832461	     -0.00000000000077367056	     14.48949014307273200000	      8.44036971700009000000	     -0.99543339464356073000	    -17.42777014098479800000	      7.97732048610475530000	     -0.00000000000002848641	      0.00000000000007830830	      3.32240968088064870000	     -5.57349373767042260000	      1.49952748980694280000	      1.24621053590727990000	      0.12118611016284048000	     -0.05375536034239827100	     -6.75030799747595990000	    -42.77932169082346500000	     18.68152121137165600000	    202.70262371039937000000	     45.39127274346815700000	     47.51183634959989600000	     46.25440770177193900000	    143.45400796542964000000	     -0.00000000000031401900	     -0.00000000000124491634	   -141.93755375555074000000	    -24.62505494679203700000	     11.81450565419903700000	     88.45799439247711900000	     46.63334454815645800000	     -0.00000000000005224733	      0.00000000000052091498	    -13.18791699869725100000	     75.11503107621770400000	    -60.51959118900725800000
